<svg width="42" height="42" viewBox="0 0 42 42" fill="none" xmlns="http://www.w3.org/2000/svg">
<path fill-rule="evenodd" clip-rule="evenodd" d="M16.3637 7.40569C19.141 6.89634 22.008 7.46206 24.3836 8.98818C26.3669 10.2623 27.8838 12.1262 28.733 14.3C29.7025 14.2039 30.6832 14.2463 31.6453 14.4279C33.0676 14.6963 34.4169 15.263 35.6044 16.0905C36.7919 16.918 37.7906 17.9876 38.535 19.2289C39.2793 20.4702 39.7523 21.8551 39.9228 23.2924C40.0933 24.7297 39.9575 26.1869 39.5243 27.5679C39.0911 28.9489 38.3703 30.2225 37.4094 31.3049C36.4485 32.3873 35.2692 33.2539 33.9493 33.8477C32.6293 34.4415 31.1985 34.749 29.7511 34.75H10.5001L10.4961 34.75C8.42388 34.7445 6.42494 33.9825 4.87488 32.6071C3.32483 31.2318 2.33035 29.3377 2.07829 27.2808C1.82624 25.2239 2.33395 23.1458 3.50605 21.4369C4.43853 20.0773 5.74044 19.0258 7.24568 18.3981C7.23491 16.0097 7.99382 13.6687 9.4274 11.7312C11.1068 9.46135 13.5865 7.91504 16.3637 7.40569ZM7.7927 21.4655C7.0757 21.8744 6.45412 22.4425 5.98007 23.1337C5.22148 24.2397 4.89289 25.5847 5.05602 26.9159C5.21915 28.2472 5.86278 29.473 6.86598 30.3631C7.86868 31.2528 9.16161 31.746 10.5021 31.75H29.7491C30.7729 31.7493 31.7849 31.5318 32.7185 31.1118C33.6521 30.6918 34.4862 30.0788 35.1659 29.3132C35.8456 28.5476 36.3554 27.6468 36.6618 26.67C36.9682 25.6931 37.0643 24.6625 36.9437 23.6459C36.8231 22.6292 36.4885 21.6497 35.962 20.7717C35.4356 19.8937 34.7291 19.1371 33.8892 18.5518C33.0493 17.9665 32.0949 17.5657 31.0889 17.3758C30.09 17.1873 29.0627 17.2109 28.0736 17.4451L25.7691 18.0723C24.9697 18.2899 24.1453 17.8183 23.9278 17.0189C23.7102 16.2196 24.1818 15.3952 24.9812 15.1777L25.7583 14.9661C25.115 13.561 24.0794 12.3585 22.7621 11.5122C21.0271 10.3976 18.9332 9.98448 16.9049 10.3565C14.8766 10.7285 13.0656 11.8578 11.8391 13.5155C10.622 15.1604 10.0707 17.2035 10.2943 19.2362L10.2955 19.243C10.3022 19.2778 10.3128 19.3314 10.3272 19.3995C10.3564 19.5367 10.4004 19.7282 10.4589 19.942C10.5859 20.4066 10.744 20.8354 10.8965 21.0791C11.3361 21.7813 11.1232 22.7069 10.421 23.1464C9.71884 23.586 8.79326 23.3731 8.35369 22.6709C8.11755 22.2937 7.93338 21.8632 7.7927 21.4655Z" fill="#9969FF"/>
</svg>
